# xmcd
#
# Track frame offsets:
#	150
#	20476
#	34216
#	49086
#	68100
#	82975
#	100710
#	116964
#	133570
#	149893
#	167065
#	182465
#	198558
#	214642
#	228899
#
# Disc length: 3278 seconds
#
# Revision: 0
# Processed by: cddbd v1.5PL3 Copyright (c) Steve Scherf et al.
# Submitted via: audiograbber 1.83.01
#
DISCID=d30ccc0f
DTITLE=Various Artist - Вокруг света. (2000)
DYEAR=1900
DGENRE=
TTITLE0=Eiffel 65. - Move Your Body.
TTITLE1=Malik From The Outhers Brothers. - You Don't Know Malik.
TTITLE2=Lou Bega. - Tricky Tricky.
TTITLE3=Banditos Bonitos. - La Collegiala.
TTITLE4=Five. - Keep On Moving.
TTITLE5=Britney Spears. - Sometimes.
TTITLE6=The Lawyer. - I Wanna Mmm...
TTITLE7=Gary Barlow. - Stronger.
TTITLE8=Samira. - It Was Him.
TTITLE9=Boney-M feat Mobi T. - Daddy Cool '99.
TTITLE10=Modern Talking feat. Eric Sinleton. - You Are Not Alone.
TTITLE11=Galerea. - Another Time.
TTITLE12=Backstreet Boys. - I Want It That Way.
TTITLE13=The Tamperer feat. Maya. - Tammer To The Heart.
TTITLE14=Chico and The Gypsies. - Habibe. (Nour El Ain)
EXTD=
EXTT0=
EXTT1=
EXTT2=
EXTT3=
EXTT4=
EXTT5=
EXTT6=
EXTT7=
EXTT8=
EXTT9=
EXTT10=
EXTT11=
EXTT12=
EXTT13=
EXTT14=
PLAYORDER=
